Jump_normalized_Motion_pl11
version=1
nRows=10
nColumns=43
inDegrees=yes
endheader
time		pelvis_tilt		pelvis_list		pelvis_rotation		pelvis_tx		pelvis_ty		pelvis_tz		hip_flexion_r		hip_adduction_r		hip_rotation_r		knee_angle_r		ankle_angle_r		subtalar_angle_r		mtp_angle_r		hip_flexion_l		hip_adduction_l		hip_rotation_l		knee_angle_l		ankle_angle_l		subtalar_angle_l		mtp_angle_l		lumbar_extension		lumbar_bending		lumbar_rotation		neck_flexion		neck_lateral_bending		neck_rotation		arm_flex_r		arm_add_r		arm_rot_r		elbow_flex_r		pro_sup_r		wrist_flex_r		wrist_dev_r		hand_finger_flex_r		arm_flex_l		arm_add_l		arm_rot_l		elbow_flex_l		pro_sup_l		wrist_flex_l		wrist_dev_l		hand_finger_flex_l		
1.375000		-3.977662		-19.856001		86.320839		-0.019464		1.615511		1.719382		102.776992		-9.550468		11.565520		-136.096314		28.496901		11.395300		7.535860		97.593608		-6.793823		2.066208		-138.190431		31.079302		10.265771		-0.323444		-54.634023		-3.864041		-1.809015		40.260747		3.467526		-0.359123		70.490925		-27.237307		25.460818		68.143997		86.549355		-1.176174		8.378309		-18.649930		71.402926		-18.726803		19.404273		65.404641		89.437205		-8.372286		12.581970		-5.477129		
1.378384		-4.026698		-19.835604		86.292645		-0.019739		1.615258		1.718110		102.646048		-9.638533		11.683575		-136.234480		28.645026		11.535512		7.559072		97.398575		-6.782419		1.953875		-138.309513		31.154634		10.240771		-0.234670		-54.530817		-3.937607		-1.805765		40.213874		3.545728		-0.369798		71.301796		-27.160723		25.979738		67.913530		86.467924		-1.033555		8.153512		-18.861793		72.278679		-18.561608		19.856438		65.061753		89.333665		-8.489551		12.320956		-5.680873		
1.381768		-4.061364		-19.872592		86.278281		-0.019972		1.615091		1.716863		102.561381		-9.698952		11.764675		-136.335987		28.746099		11.620584		7.563856		97.250419		-6.762333		1.864181		-138.379257		31.215350		10.195874		-0.154630		-54.392826		-3.990104		-1.832619		40.215437		3.585978		-0.379982		72.055835		-26.998337		26.377441		67.793173		86.375086		-0.961489		7.986979		-19.067972		73.132626		-18.399729		20.181541		64.748606		89.279704		-8.610719		12.093448		-5.847802		
1.385152		-4.094086		-19.908321		86.273454		-0.020253		1.614922		1.715572		102.470175		-9.743111		11.858533		-136.435197		28.831897		11.659328		7.557219		97.096592		-6.723712		1.768593		-138.457041		31.284456		10.128744		-0.075260		-54.248741		-4.029683		-1.845398		40.204446		3.608364		-0.400598		72.820864		-26.869197		26.800940		67.696269		86.268098		-0.915017		7.846445		-19.272692		73.999764		-18.227852		20.519158		64.430032		89.300798		-8.709746		11.842330		-6.003891		
1.388535		-4.133192		-19.880370		86.277796		-0.020590		1.614924		1.714211		102.301937		-9.767751		11.985783		-136.518988		28.900872		11.682810		7.533613		96.847610		-6.649636		1.656610		-138.522795		31.347382		10.012080		0.040139		-54.175447		-4.058728		-1.859251		40.116794		3.607962		-0.456555		73.596587		-26.801690		27.275555		67.673623		86.030760		-0.917256		7.607797		-19.590171		74.897547		-18.054974		20.886439		64.070714		89.353841		-8.820577		11.399597		-6.213097		
1.391919		-4.131835		-20.038083		86.285517		-0.020901		1.614742		1.712934		102.300769		-9.765161		12.042556		-136.561507		28.945185		11.667826		7.530637		96.811036		-6.593999		1.608968		-138.577130		31.422306		9.969847		0.072237		-53.915012		-4.059544		-1.853298		40.242771		3.607037		-0.484252		74.313836		-26.572424		27.488621		67.624174		86.002193		-0.899791		7.586825		-19.657142		75.709121		-17.816797		20.981009		63.818204		89.429301		-8.837457		11.311263		-6.284217		
1.395303		-4.158606		-19.983537		86.300372		-0.021337		1.614714		1.711525		102.110149		-9.818950		12.157212		-136.659499		28.988312		11.610877		7.520480		96.540388		-6.509713		1.478157		-138.682090		31.522975		9.816025		0.137245		-53.836783		-4.071919		-1.802956		40.118904		3.591685		-0.591242		75.209578		-26.623957		28.121732		67.545271		85.858816		-0.878039		7.406131		-19.834057		76.700272		-17.586418		21.419607		63.340927		89.686632		-8.806003		10.819144		-6.474242		
1.398687		-4.158031		-20.143211		86.293632		-0.021587		1.614653		1.710208		102.104205		-9.827924		12.184874		-136.675890		29.010671		11.613845		7.524370		96.487357		-6.464537		1.442935		-138.724768		31.580255		9.774260		0.152831		-53.571372		-4.090595		-1.788632		40.249805		3.597811		-0.634855		75.940735		-26.346203		28.263693		67.469351		85.824196		-0.898621		7.373025		-19.883567		77.540441		-17.320508		21.464091		63.078701		89.765404		-8.821121		10.702050		-6.554306		
1.402071		-4.183329		-20.179439		86.276141		-0.021842		1.614539		1.708815		102.011736		-9.862442		12.245870		-136.762926		29.031428		11.597473		7.535292		96.331443		-6.442927		1.352742		-138.841322		31.672182		9.671049		0.167620		-53.379956		-4.141730		-1.732827		40.244256		3.633603		-0.726743		76.824681		-26.214769		28.720079		67.258929		85.741511		-0.888775		7.307159		-19.956025		78.536392		-17.057752		21.818528		62.633877		89.944373		-8.799818		10.412124		-6.709282		
1.405455		-4.210226		-20.122409		86.226905		-0.022024		1.614803		1.707333		101.785656		-9.849704		12.346361		-136.802879		29.036957		11.610408		7.565491		96.012928		-6.427028		1.252463		-138.891335		31.725234		9.534255		0.163262		-53.322380		-4.243493		-1.712235		40.062044		3.687815		-0.839807		77.669467		-26.110676		29.152107		67.196236		85.382861		-0.994124		7.045697		-20.130287		79.565302		-16.846037		22.217802		62.197176		90.075597		-8.852154		9.832431		-7.020545		
